<svg xmlns="http://www.w3.org/2000/svg" data-name="Layer 1" viewBox="0 0 32 32" id="Award"><path d="M19.5,18.28h-7v1h7Zm-5.67-4-.53,2.95L16,15.85l2.65,1.41-.49-3,2.17-2.07-3-.46L16,9.09l-1.35,2.67-3,.41Zm1.5-1.59L16,11.35l.65,1.34,1.48.23-1.08,1,.24,1.47L16,14.72l-1.33.68.26-1.47-1.06-1Zm14,4.49v-.05A3.15,3.15,0,0,0,32,14v-.86h-.5a3.1,3.1,0,0,0-2.14.86,14.63,14.63,0,0,0-.19-1.5l.07,0,0-.05a3.7,3.7,0,0,0,1.46-4.25l-.17-.51-.5.21a3.19,3.19,0,0,0-1.68,1.69,13.61,13.61,0,0,0-.66-1.39l0,0,0,0a3.81,3.81,0,0,0,.09-4.55l-.34-.46L27,3.5A3.58,3.58,0,0,0,26,5.76a13,13,0,0,0-1.05-1A3.71,3.71,0,0,0,23.66.31L23.19,0,22.94.5a3.8,3.8,0,0,0-.4,1.67,3.14,3.14,0,0,0-2.08-.08h-.54l.12.6a2.88,2.88,0,0,0,1.25,1.85,3.29,3.29,0,0,0-1,1.18l-.2.4.37.24a2.91,2.91,0,0,0,1.6.48,3,3,0,0,0,.73-.09,3.14,3.14,0,0,0,1.64-1.14,11.21,11.21,0,0,1,.89.93h0a2.89,2.89,0,0,0-2.27.8l-.37.31.28.38a3.08,3.08,0,0,0,2.19,1.27h.25a2.91,2.91,0,0,0,1.51-.44c.2.38.38.77.55,1.18l-.08,0A2.86,2.86,0,0,0,25,9.94l-.43.18.14.44a3.39,3.39,0,0,0,1.76,2.06,2.85,2.85,0,0,0,1.21.27,2.73,2.73,0,0,0,.49-.06c.07.4.12.8.16,1.21a3.15,3.15,0,0,0-2.17-.88h-.5V14a3.14,3.14,0,0,0,2.58,3.08c-.06.43-.14.86-.24,1.27a3.25,3.25,0,0,0-1.68-1.72l-.52-.26-.18.56A3.69,3.69,0,0,0,27,21.14a10.43,10.43,0,0,1-.6,1.09A3.58,3.58,0,0,0,25.38,20L25,19.54l-.34.47a3.81,3.81,0,0,0,0,4.48c-.29.28-.59.55-.9.8a3.7,3.7,0,0,0-.27-2.57l-.22-.59-.53.34a3.73,3.73,0,0,0-1.32,4.26,9.75,9.75,0,0,1-2.93.77,3.46,3.46,0,0,0-2.09,1l-.41.41-.41-.41a3.46,3.46,0,0,0-2.09-1,9.75,9.75,0,0,1-2.93-.77,3.73,3.73,0,0,0-1.32-4.26l-.51-.4-.22.6a3.85,3.85,0,0,0-.29,2.62c-.31-.25-.61-.52-.9-.8a3.83,3.83,0,0,0,0-4.48L7,19.56,6.62,20a3.58,3.58,0,0,0-1.06,2.28A10.43,10.43,0,0,1,5,21.14,3.69,3.69,0,0,0,6.35,17l-.17-.52-.5.21A3.24,3.24,0,0,0,4,18.38c-.1-.42-.18-.85-.24-1.28A3.14,3.14,0,0,0,6.31,14v-.86h-.5A3.15,3.15,0,0,0,3.64,14c0-.41.09-.81.16-1.21a2.73,2.73,0,0,0,.49.06,2.85,2.85,0,0,0,1.21-.27,3.39,3.39,0,0,0,1.76-2.06l.13-.44L7,9.94A2.86,2.86,0,0,0,4.66,10l-.08,0c.17-.41.35-.8.55-1.18a2.91,2.91,0,0,0,1.51.44h.25A3.08,3.08,0,0,0,9.08,8l.25-.36L9,7.36a2.93,2.93,0,0,0-2.3-.83h0c.28-.33.57-.63.87-.92A3.15,3.15,0,0,0,9.21,6.75a3,3,0,0,0,.73.09,2.91,2.91,0,0,0,1.6-.48l.37-.25-.2-.4a3.39,3.39,0,0,0-1-1.19,2.83,2.83,0,0,0,1.22-2L12,2.12,11.55,2a3.44,3.44,0,0,0-.91-.13,3.11,3.11,0,0,0-1.19.23A4,4,0,0,0,9.05.48L8.79,0l-.45.3a3.71,3.71,0,0,0-1.28,4.4A11.55,11.55,0,0,0,6,5.77a3.7,3.7,0,0,0-1.1-2.31l-.4-.32-.31.42a3.81,3.81,0,0,0,.1,4.56l0,0,0,0c-.24.44-.45.9-.65,1.37A3.2,3.2,0,0,0,2,7.9L1.5,7.64l-.18.55a3.7,3.7,0,0,0,1.46,4.25v.05l.06,0A14.63,14.63,0,0,0,2.64,14,3.1,3.1,0,0,0,.5,13.16H0V14a3.15,3.15,0,0,0,2.65,3.1v.05h.08c.08.54.17,1.07.3,1.59H3a2.83,2.83,0,0,0-2.28-.06l-.47.15.15.47a3.39,3.39,0,0,0,1.76,2.06,2.81,2.81,0,0,0,1.21.27A2.44,2.44,0,0,0,4,21.57v.05l.09,0A15.56,15.56,0,0,0,4.85,23a2.89,2.89,0,0,0-2.28.83l-.33.3.26.37a3,3,0,0,0,2.19,1.26h.25a2.86,2.86,0,0,0,1.61-.5l0,0,.08-.07a12.11,12.11,0,0,0,1.15,1,3.2,3.2,0,0,0-1.93,1.65l-.22.4.38.25a2.84,2.84,0,0,0,1.6.49,2.62,2.62,0,0,0,.73-.1,3.1,3.1,0,0,0,1.72-1.22l0,0,0-.08a10.56,10.56,0,0,0,3.24.86,2.38,2.38,0,0,1,1.47.71l.41.41-1.7,1.7.71.71L16,30.32,17.7,32l.71-.71-1.7-1.7.41-.41a2.38,2.38,0,0,1,1.47-.71,10.55,10.55,0,0,0,3.25-.86l0,.08,0,0a3.11,3.11,0,0,0,1.71,1.22,2.62,2.62,0,0,0,.73.1,2.84,2.84,0,0,0,1.6-.49l.37-.25-.2-.4a3.25,3.25,0,0,0-1.94-1.65,10.64,10.64,0,0,0,1.14-1l.08.08,0,0a2.93,2.93,0,0,0,1.61.49h.25a3,3,0,0,0,2.19-1.27l.25-.35-.32-.31A2.89,2.89,0,0,0,27.15,23a15.56,15.56,0,0,0,.78-1.39l.09,0,0-.05a2.88,2.88,0,0,0,.59.06,2.8,2.8,0,0,0,1.2-.27,3.39,3.39,0,0,0,1.76-2.06l.13-.44-.42-.17a2.86,2.86,0,0,0-2.31.05h0c.13-.52.22-1.05.3-1.59Zm0-1.15A2.14,2.14,0,0,1,31,14.23a2.16,2.16,0,0,1-1.61,1.87ZM21.18,3a2,2,0,0,1,1.56.45,3.44,3.44,0,0,0,.21.53A2,2,0,0,0,22.6,4,1.87,1.87,0,0,1,21.18,3Zm1.36,2.82a1.84,1.84,0,0,1-1.09,0A2,2,0,0,1,22.56,5a1.73,1.73,0,0,1,1.08,0A2,2,0,0,1,22.54,5.78ZM24.14,4a2.79,2.79,0,0,1-.54-2.4A2.76,2.76,0,0,1,24.14,4Zm1.05,4.31a1.91,1.91,0,0,1-1.13-.5,1.79,1.79,0,0,1,1.13-.26,1.93,1.93,0,0,1,1.14.5A1.92,1.92,0,0,1,25.19,8.29ZM27.13,7.2a2.85,2.85,0,0,1,.18-2.47A2.86,2.86,0,0,1,27.13,7.2Zm-.21,4.51a2.38,2.38,0,0,1-1-1,1.88,1.88,0,0,1,1,.16,2.3,2.3,0,0,1,1,1A1.86,1.86,0,0,1,26.92,11.71ZM9.26,3.41a2,2,0,0,1,1.54-.52A1.89,1.89,0,0,1,9.44,4a2.6,2.6,0,0,0-.39-.05A2.66,2.66,0,0,0,9.26,3.41ZM9,4.94V5.1L9.47,5a2.14,2.14,0,0,1,1.08.73,1.84,1.84,0,0,1-1.09,0A2.15,2.15,0,0,1,8.35,5,1.87,1.87,0,0,1,9,4.94ZM8.39,1.58A2.76,2.76,0,0,1,7.86,4,2.79,2.79,0,0,1,8.39,1.58Zm-1.58,6a1.82,1.82,0,0,1,1.13.26,1.93,1.93,0,0,1-1.13.5A1.89,1.89,0,0,1,5.67,8,1.93,1.93,0,0,1,6.81,7.53ZM4.68,4.74A2.87,2.87,0,0,1,4.87,7.2,2.87,2.87,0,0,1,4.68,4.74Zm.4,6.16a1.77,1.77,0,0,1,1-.16,2.3,2.3,0,0,1-1,1,1.86,1.86,0,0,1-1,.16A2.3,2.3,0,0,1,5.08,10.9ZM1,14.23A2.14,2.14,0,0,1,2.62,16v.08A2.16,2.16,0,0,1,1,14.23ZM2.14,9.14A2.63,2.63,0,0,1,3,11.41,2.68,2.68,0,0,1,2.14,9.14Zm.44,11.32a2.25,2.25,0,0,1-1-1,1.9,1.9,0,0,1,1,.16,2.27,2.27,0,0,1,1,1A1.92,1.92,0,0,1,2.58,20.46ZM5.3,14.23a2.16,2.16,0,0,1-1.64,1.88A2.15,2.15,0,0,1,5.3,14.23Zm-.66,5.94a2.65,2.65,0,0,1,.89-2.27A2.7,2.7,0,0,1,4.64,20.17Zm.14,4.57a1.93,1.93,0,0,1-1.14-.5,1.91,1.91,0,0,1,2.27.24A1.82,1.82,0,0,1,4.78,24.74Zm1.94-1.09A2.81,2.81,0,0,1,6.9,21.2,2.85,2.85,0,0,1,6.72,23.65ZM8.12,28a1.93,1.93,0,0,1-1.09,0,2.13,2.13,0,0,1,1.11-.75,1.81,1.81,0,0,1,1.08,0A2.12,2.12,0,0,1,8.12,28Zm1.6-1.8a2.84,2.84,0,0,1-.53-2.4A2.8,2.8,0,0,1,9.72,26.15Zm13.09-2.4a2.8,2.8,0,0,1-.53,2.4A2.78,2.78,0,0,1,22.81,23.75ZM25,27.91a1.89,1.89,0,0,1-1.08,0,2.12,2.12,0,0,1-1.1-.75,1.81,1.81,0,0,1,1.08,0A2,2,0,0,1,25,27.91Zm.32-4.26a2.83,2.83,0,0,1-.18-2.46A2.84,2.84,0,0,1,25.28,23.65Zm1.95.33a1.89,1.89,0,0,1,1.13.26,1.93,1.93,0,0,1-1.14.5,1.87,1.87,0,0,1-1.13-.26A1.93,1.93,0,0,1,27.23,24Zm-.76-6.09a2.66,2.66,0,0,1,.89,2.28A2.71,2.71,0,0,1,26.47,17.89Zm.23-3.66a2.15,2.15,0,0,1,1.64,1.88A2.16,2.16,0,0,1,26.7,14.23Zm2.71,5.42a1.88,1.88,0,0,1,1-.15,2.28,2.28,0,0,1-1,1,1.92,1.92,0,0,1-1,.17A2.27,2.27,0,0,1,29.41,19.65ZM29,11.42a2.67,2.67,0,0,1,.89-2.28A2.71,2.71,0,0,1,29,11.42ZM18,21.28v-1H14v1Z" fill="#ff2d00" class="color000000 svgShape"></path></svg>