<svg xmlns="http://www.w3.org/2000/svg" data-name="Layer 1" viewBox="0 0 512 512" id="customersupport"><path fill="#ff2d00" d="m474.03 473.837-7.013-58.066a7.076 7.076 0 0 0-.041-.289 58.562 58.562 0 0 0-46.859-48.143l-71.52-13.453h-.005l-19.37-3.644a392.654 392.654 0 0 0 55.293-15.005 36.93 36.93 0 0 0 24.27-40.069l-11.16-76.507h6.226a15.07 15.07 0 0 0 15.053-15.054v-30.563a15.07 15.07 0 0 0-15.053-15.054h-12.38a33.364 33.364 0 0 0-3.649-6.533l-6.225-42.68A127.149 127.149 0 0 0 255.767 0h-5.642a127.356 127.356 0 0 0-126.172 111.302l-5.857 46.688H105.85a15.07 15.07 0 0 0-15.054 15.054v30.563a15.07 15.07 0 0 0 15.054 15.054h4.636l-9.67 77.085a37.011 37.011 0 0 0 24.208 39.281 391.678 391.678 0 0 0 57.05 15.443l-16.502 3.245-.111.022-70.709 13.905a58.498 58.498 0 0 0-45.55 43.888q-.048.197-.083.396l-10.697 59.612A33.08 33.08 0 0 0 70.67 512h370.66a33.09 33.09 0 0 0 32.7-38.163Zm-79.995-300.824 9.87.03-.054 30.618h-9.816Zm-9.976 56.567 9.882 67.754a21.898 21.898 0 0 1-14.405 23.753 377.475 377.475 0 0 1-63.916 16.358v-28.919l5.425-3.394a60.96 60.96 0 0 0 19.503-19.498h1.224a32.7 32.7 0 0 0 32.667-32.658v-16.77a33.466 33.466 0 0 0 9.62-6.626Zm-100.09 81.056a55.259 55.259 0 0 1-58.236 0l-15.549-9.728c-.025-.017-.053-.032-.079-.049l-13.5-8.446a45.706 45.706 0 0 1-21.602-38.98V151.94a50.302 50.302 0 0 0 36.03-23.519 115.656 115.656 0 0 0 15.446 12.82l1.456.991c34.128 23.131 70.971 17.74 106.76 11.606v99.597a46.092 46.092 0 0 1-3.306 17.2h-50.288a22.195 22.195 0 0 0-20.899-14.801h-12.737a22.186 22.186 0 0 0-22.16 22.161v.28a22.186 22.186 0 0 0 22.16 22.16h12.737a22.196 22.196 0 0 0 20.899-14.8h40.432a46.389 46.389 0 0 1-8.442 6.78Zm16.651 7.276v34.148a5.638 5.638 0 0 1-2.167 4.421l-42.36 32.97-40.538-32.876a5.57 5.57 0 0 1-2.04-3.718c-.004-.055-.004-.11-.009-.164-.012-.153-.026-.307-.026-.463v-31.565l4.3 2.69a70.351 70.351 0 0 0 74.143-.002Zm-33.258-39.918v.28a7.168 7.168 0 0 1-7.16 7.16h-12.737a7.168 7.168 0 0 1-7.16-7.16v-.28a7.169 7.169 0 0 1 7.16-7.161h12.737a7.169 7.169 0 0 1 7.16 7.161Zm80.16-8.34a61.453 61.453 0 0 0 2.173-16.22v-14.23h9.744v13.772a17.675 17.675 0 0 1-11.917 16.679Zm31.513-98.844v35.031a18.383 18.383 0 0 1-18.362 18.363h-10.978v-71.757h10.978a18.383 18.383 0 0 1 18.362 18.363Zm-240.2-57.641A112.332 112.332 0 0 1 250.126 15h5.642a112.147 112.147 0 0 1 110.986 95.941l4.1 28.103a33.215 33.215 0 0 0-10.18-1.597h-18.1c-.037-.001-.073.002-.11 0h-.268l-.03.002a7.406 7.406 0 0 0-.7.036l-.1.011c-.144.016-.287.025-.43.05l-5.134.881c-35.567 6.127-69.162 11.914-99.45-8.612l-1.365-.93a100.174 100.174 0 0 1-20.188-18.55 7.5 7.5 0 0 0-12.918 2.46 35.594 35.594 0 0 1-34.3 24.653l-.033.001-.044-.002h-18.477a33.128 33.128 0 0 0-13.603 2.926Zm-8.17 57.64a18.383 18.383 0 0 1 18.361-18.361h10.977v71.756h-10.977a18.383 18.383 0 0 1-18.362-18.363Zm-24.87 32.798.054-30.617h9.815v30.648Zm24.232 117.28a21.924 21.924 0 0 1-14.329-23.274l8.696-69.322a33.258 33.258 0 0 0 24.632 10.913h10.977v14.23a60.621 60.621 0 0 0 28.648 51.697l9.83 6.15v26.799a376.572 376.572 0 0 1-68.454-17.193Zm70.935 41.156a20.614 20.614 0 0 0 5.144 6.183l41.47 33.63a13.417 13.417 0 0 0 16.79.163l43.297-33.698a20.547 20.547 0 0 0 5.138-5.904l25.975 4.885a15.708 15.708 0 0 1-5.206 7.436l-77.163 60.055a1.768 1.768 0 0 1-2.206-.023l-73.92-59.952a15.458 15.458 0 0 1-5.112-7.703ZM455.1 490.645A18.067 18.067 0 0 1 441.33 497H70.67a18.08 18.08 0 0 1-17.6-22.228q.046-.197.081-.398l10.694-59.592a43.468 43.468 0 0 1 33.802-32.423l62.756-12.34a30.394 30.394 0 0 0 10.435 16.454l73.919 59.95a16.7 16.7 0 0 0 20.87.202l77.164-60.055a30.44 30.44 0 0 0 10.82-16.477l63.729 11.987a43.525 43.525 0 0 1 34.803 35.64l7.01 58.05c.012.095.026.19.041.286a18.055 18.055 0 0 1-4.095 14.589Z" class="color1e1f27 svgShape"></path></svg>