<svg xmlns="http://www.w3.org/2000/svg" data-name="Layer 1" viewBox="0 0 512 512" id="menu"><path fill="#ff2d00" d="M185.00391,290.0293H326.99609a22.49806,22.49806,0,0,0,6.5-44.037V235.53516a67.59869,67.59869,0,0,0-55.1333-66.34473,24.999,24.999,0,1,0-44.72558,0,67.59869,67.59869,0,0,0-55.1333,66.34473v10.45715a22.49806,22.49806,0,0,0,6.5,44.037ZM256,148.03711a9.999,9.999,0,1,1-9.999,9.999A10.0101,10.0101,0,0,1,256,148.03711Zm-62.49609,87.498a52.55991,52.55991,0,0,1,52.5-52.5h19.99218a52.55991,52.55991,0,0,1,52.5,52.5v9.49609H193.50391Zm-8.5,24.49609H326.99609a7.499,7.499,0,1,1,0,14.998H185.00391a7.499,7.499,0,1,1,0-14.998ZM366.5,452h-134a7.5,7.5,0,0,0,0,15h134a7.5,7.5,0,0,0,0-15Zm0-131.07324h-134a7.5,7.5,0,0,0,0,15h134a7.5,7.5,0,0,0,0-15ZM187.5,410h-42a7.49943,7.49943,0,0,0-7.5,7.5v42a7.49943,7.49943,0,0,0,7.5,7.5h42a7.49943,7.49943,0,0,0,7.5-7.5v-42A7.49943,7.49943,0,0,0,187.5,410ZM180,452H153V425h27ZM401.5,90H344V22.01562A17.50053,17.50053,0,0,0,320.26367,5.665L97.82715,90.49219c-.03174.01208-.06079.02807-.09229.04052-.14673.05835-.28979.12317-.43188.19031-.08911.04187-.17847.08264-.26514.12757-.11938.06237-.23511.13037-.35058.19885-.10328.06079-.20679.12073-.30616.18591-.08984.05921-.17578.12317-.26294.186-.11474.08276-.22949.16491-.33862.25341-.06933.05616-.13452.1167-.20166.17518-.11621.10119-.23193.20227-.34106.30981-.06226.0614-.12012.12708-.18018.1908-.10352.10949-.20727.21875-.30371.334-.06665.07959-.12769.1637-.19116.24609-.08032.1045-.16211.208-.23657.31653-.07325.10584-.13916.21668-.20655.3263-.05615.09106-.1145.18042-.1665.27368-.07178.12866-.1355.26172-.19971.3949-.03955.08166-.08154.162-.11816.245-.06031.13745-.11231.279-.1648.42078-.03174.0863-.06616.17151-.09472.25891-.043.13122-.07813.2655-.114.39978-.02832.10608-.0581.21155-.082.31909-.02515.1145-.04394.23084-.06372.34729-.023.13379-.04565.26733-.06128.40259-.01123.09607-.01733.19336-.0249.29053-.01221.15771-.02173.31543-.02393.47436C93.00464,97.43384,93,97.46631,93,97.5v407a7.49943,7.49943,0,0,0,7.5,7.5h301A17.52,17.52,0,0,0,419,494.5v-387A17.52,17.52,0,0,0,401.5,90ZM325.60938,19.68066A2.49931,2.49931,0,0,1,329,22.01562V90H141.21582ZM404,494.5a2.50231,2.50231,0,0,1-2.5,2.5H108V105H401.5a2.50231,2.50231,0,0,1,2.5,2.5ZM366.5,362.92676h-134a7.5,7.5,0,0,0,0,15h134a7.5,7.5,0,0,0,0-15Zm-179-42h-42a7.49943,7.49943,0,0,0-7.5,7.5v42a7.49943,7.49943,0,0,0,7.5,7.5h42a7.49943,7.49943,0,0,0,7.5-7.5v-42A7.49943,7.49943,0,0,0,187.5,320.92676Zm-7.5,42H153v-27h27ZM366.5,410h-134a7.5,7.5,0,0,0,0,15h134a7.5,7.5,0,0,0,0-15Z" class="color1e1f27 svgShape"></path></svg>