<!DOCTYPE svg PUBLIC "-//W3C//DTD SVG 1.1//EN" "http://www.w3.org/Graphics/SVG/1.1/DTD/svg11.dtd">
<!-- Uploaded to: SVG Repo, www.svgrepo.com, Transformed by: SVG Repo Mixer Tools -->
<svg fill="#000000" width="800px" height="800px" viewBox="0 0 24 24" id="star" data-name="Flat Color" xmlns="http://www.w3.org/2000/svg" class="icon flat-color">
<g id="SVGRepo_bgCarrier" stroke-width="0"/>
<g id="SVGRepo_tracerCarrier" stroke-linecap="round" stroke-linejoin="round"/>
<g id="SVGRepo_iconCarrier">
<path id="primary" d="M22,9.81a1,1,0,0,0-.83-.69l-5.7-.78L12.88,3.53a1,1,0,0,0-1.76,0L8.57,8.34l-5.7.78a1,1,0,0,0-.82.69,1,1,0,0,0,.28,1l4.09,3.73-1,5.24A1,1,0,0,0,6.88,20.9L12,18.38l5.12,2.52a1,1,0,0,0,.44.1,1,1,0,0,0,1-1.18l-1-5.24,4.09-3.73A1,1,0,0,0,22,9.81Z" style="fill: #fc0;"/>
</g>
</svg>