<svg xmlns="http://www.w3.org/2000/svg" data-name="Artboard 30" viewBox="0 0 64 64" id="cola"><path fill="#e96454" d="M57.328,56.008,56,58H38l-1.328-1.992A3.352,3.352,0,0,1,36,54V29a3.352,3.352,0,0,1,.672-2.008L38,25H56l1.328,1.992A3.352,3.352,0,0,1,58,29V54A3.352,3.352,0,0,1,57.328,56.008Z"></path><path fill="#f8f5e8" d="M48.342,40.317l-.684,1.366A6,6,0,0,1,42.292,45H36v9a3.352,3.352,0,0,0,.672,2.008L38,58H56l1.328-1.992A3.352,3.352,0,0,0,58,54V37H53.708A6,6,0,0,0,48.342,40.317Z"></path><path fill="#7d664e" d="M22,7v4a3.346,3.346,0,0,0,2.211,3.106l3.578,1.788A4.857,4.857,0,0,1,30,20V30a9.468,9.468,0,0,1-1,4.236h0a14.151,14.151,0,0,0-1,5.236V40a9.465,9.465,0,0,0,1,4.236h0a9.468,9.468,0,0,1,1,4.236V59.394A2.606,2.606,0,0,1,27.394,62h0a2.606,2.606,0,0,1-2.168-1.16l-.671-1.008A1.869,1.869,0,0,0,23,59h0a1.869,1.869,0,0,0-1.555.832l-.336.5A3.736,3.736,0,0,1,18,62h0a3.736,3.736,0,0,1-3.109-1.664l-.336-.5A1.869,1.869,0,0,0,13,59h0a1.869,1.869,0,0,0-1.555.832l-.671,1.008A2.606,2.606,0,0,1,8.606,62h0A2.606,2.606,0,0,1,6,59.394V48.472a9.468,9.468,0,0,1,1-4.236H7A9.468,9.468,0,0,0,8,40v-.528a14.151,14.151,0,0,0-1-5.236H7A9.468,9.468,0,0,1,6,30V20a4.857,4.857,0,0,1,2.211-4.106l3.578-1.788A3.346,3.346,0,0,0,14,11V7Z"></path><rect width="10" height="5" x="13" y="2" fill="#e96454"></rect><path fill="#6d5846" d="M29,34.236h0a9.456,9.456,0,0,0,.941-3.224c-.038.332-.093.662-.163.988h-2A9.447,9.447,0,0,1,27,34.236h0a14.151,14.151,0,0,0-1,5.236V40a9.468,9.468,0,0,0,1,4.236,9.468,9.468,0,0,1,1,4.236V59.394a2.606,2.606,0,0,1-1.581,2.4A2.564,2.564,0,0,0,30,59.394V48.472a9.468,9.468,0,0,0-1-4.236A9.468,9.468,0,0,1,28,40v-.528A14.151,14.151,0,0,1,29,34.236Z"></path><path fill="#e96454" d="M28 20H6V30a9.516 9.516 0 00.222 2H27.778A9.516 9.516 0 0028 30zM30 30a9.477 9.477 0 01-.059 1.012A8.982 8.982 0 0030 30z"></path><path fill="#dd5c52" d="M29.941,31.012A9.477,9.477,0,0,0,30,30V20H28V30a9.516,9.516,0,0,1-.222,2h2C29.848,31.674,29.9,31.344,29.941,31.012Z"></path><rect width="16" height="4" x="10" y="24" fill="#f8f5e8"></rect><rect width="2" height="17" x="22" y="37" fill="#6d5846"></rect><rect width="2" height="17" x="12" y="37" fill="#6d5846"></rect><rect width="2" height="17" x="17" y="37" fill="#6d5846"></rect><path fill="#dd5c52" d="M57.328,26.992,56,25H54l1.328,1.992A3.352,3.352,0,0,1,56,29v8h2V29A3.352,3.352,0,0,0,57.328,26.992Z"></path><path fill="#eae7dc" d="M56,54a3.352,3.352,0,0,1-.672,2.008L54,58h2l1.328-1.992A3.352,3.352,0,0,0,58,54V37H56Z"></path><rect width="18" height="4" x="38" y="58" fill="#8a8585"></rect><rect width="18" height="4" x="38" y="21" fill="#8a8585"></rect><path fill="#7c7979" d="M42,21V16.5A2.5,2.5,0,0,1,44.5,14h0A2.5,2.5,0,0,1,47,16.5V21Z"></path><circle cx="54" cy="12" r="3" fill="#7d664e"></circle><path fill="#705a47" d="M54,9a2.962,2.962,0,0,0-1,.184,2.982,2.982,0,0,1,0,5.632A2.962,2.962,0,0,0,54,15a3,3,0,0,0,0-6Z"></path><circle cx="40" cy="7" r="4" fill="#7d664e"></circle><path fill="#705a47" d="M40,3a3.977,3.977,0,0,0-1,.141,3.982,3.982,0,0,1,0,7.718A3.994,3.994,0,1,0,40,3Z"></path><rect width="2" height="4" x="54" y="21" fill="#7c7979"></rect><rect width="2" height="4" x="54" y="58" fill="#7c7979"></rect><rect width="2" height="5" x="21" y="2" fill="#dd5c52"></rect></svg>