<svg version="1.2" xmlns="http://www.w3.org/2000/svg" viewBox="0 0 360 367" width="360" height="367"><style>.a{fill:#524531}.b{fill:#f3b646}.c{fill:#f3d675}.d{fill:#debe4d}.e{fill:#d3402c}.f{fill:#eeca4a}.g{fill:#ffe339}</style><g style="opacity:.1;mix-blend-mode:multiply"><path class="a" d="m353.3 255.3q2.1-5.5 3.9-11.2c7.1-15.2 7.1-32.4 8.5-50.5 0.4-3.5 0.5-7 0.6-10.6q0.3-4 0.1-8.1 0-0.1 0-0.2 0.1-2 0-4 0.1-2.3 0-4.6 0-0.3-0.1-0.7c0.9-11-2.8-21.1-7.2-31.2q-2.1-5.4-4.7-10.6c-0.6-5.3-1-11-1.9-16.6-5.7-34.7-31.4-63.7-66-72.4-9.7-7.3-20.8-12.8-32.3-16.8-18.5-13.5-39.7-16-61.1-13.1-26.2-3-53.8-0.3-76.9 13.8-5.1 2.4-10.3 3.7-15.6 5.4-29.3 8.7-51.2 29.1-62 57.7-2.4 4.8-5 9.7-7.7 14.6q-5.6 10.3-9.8 21.4-2.1 5.5-3.8 11.2c-7.2 15.2-7.2 32.4-8.6 50.5-0.3 3.5-0.5 7-0.6 10.6q-0.2 4 0 8.1 0 0.1 0 0.2-0.1 2-0.1 4-0.1 2.3 0.1 4.6 0 0.3 0 0.7c-0.9 11 2.8 21.1 7.2 31.2q2.1 5.4 4.7 10.6c0.6 5.3 1.1 11 2 16.6 5.7 34.7 31.3 63.7 66 72.4 9.6 7.3 20.7 12.8 32.3 16.8 18.5 13.5 39.7 16 61 13.1 26.2 3 53.9 0.3 77-13.7 5-2.5 10.2-3.8 15.5-5.5 29.3-8.7 51.3-29.1 62-57.7 2.4-4.8 5.1-9.7 7.7-14.6q5.6-10.3 9.8-21.4z"/><path class="a" d="m25.1 439.3c-3.9 0-3.5 5.9 0.3 5.9 3.8 0 3.5-5.9-0.3-5.9z"/></g><path class="b" d="m359.3 169.4c0.9-11-2.8-21.1-7.2-31.2q-2.1-5.4-4.7-10.6c-0.6-5.3-1-11-1.9-16.6-5.7-34.7-31.4-63.7-66-72.4-9.7-7.3-20.8-12.8-32.3-16.8-18.5-13.5-39.8-16-61.1-13.1-26.2-3-53.8-0.3-76.9 13.8-5.1 2.4-10.3 3.7-15.6 5.4-29.3 8.7-51.3 29.1-62 57.7-2.4 4.8-5 9.7-7.7 14.6q-5.6 10.3-9.8 21.4-2.1 5.5-3.8 11.2c-7.2 15.2-7.2 32.4-8.6 50.5-0.3 3.5-0.5 7-0.6 10.6q-0.2 4-0.1 8.1 0.1 1.2 0.1 2.5c-0.9 11 2.8 21.1 7.2 31.2q2.1 5.4 4.7 10.6c0.6 5.3 1 11 2 16.6 5.7 34.7 31.3 63.7 66 72.4 9.6 7.3 20.7 12.8 32.3 16.8 18.5 13.5 39.7 16 61 13.1 26.2 3 53.9 0.3 77-13.7 5-2.5 10.2-3.8 15.5-5.5 29.3-8.7 51.3-29.1 62-57.7 2.4-4.8 5.1-9.7 7.7-14.6q5.6-10.3 9.8-21.4 2.1-5.5 3.9-11.2c7.1-15.2 7.1-32.4 8.5-50.5 0.4-3.5 0.5-7 0.6-10.6q0.3-4 0.1-8.1 0-1.2-0.1-2.5z"/><path class="c" d="m359.3 162.4c0.9-11-2.8-21.1-7.2-31.2q-2.1-5.4-4.7-10.6c-0.6-5.3-1-11-1.9-16.6-5.7-34.7-31.4-63.7-66-72.4-9.7-7.3-20.8-12.8-32.3-16.8-18.5-13.5-39.8-16-61.1-13.1-26.2-3-53.8-0.3-76.9 13.7-5.1 2.5-10.3 3.8-15.6 5.5-29.3 8.7-51.3 29.1-62 57.7-2.4 4.8-5 9.7-7.7 14.6q-5.6 10.3-9.8 21.4-2.1 5.5-3.8 11.2c-7.2 15.2-7.2 32.4-8.6 50.5-0.3 3.5-0.5 7-0.6 10.6q-0.2 4-0.1 8.1 0.1 1.2 0.1 2.5c-0.9 11 2.8 21.1 7.2 31.2q2.1 5.4 4.7 10.6c0.6 5.3 1 11 2 16.6 5.7 34.7 31.3 63.7 66 72.4 9.6 7.3 20.7 12.8 32.3 16.8 18.5 13.5 39.7 16 61 13.1 26.2 3 53.9 0.3 77-13.7 5-2.5 10.2-3.8 15.5-5.5 29.3-8.7 51.3-29.1 62-57.7 2.4-4.8 5.1-9.7 7.7-14.6q5.6-10.3 9.8-21.4 2.1-5.5 3.9-11.2c7.1-15.2 7.1-32.4 8.5-50.5 0.4-3.5 0.5-7 0.6-10.6q0.3-4 0.1-8.1 0-1.2-0.1-2.5z"/><path class="d" d="m345.4 163.8c0.8-10.2-2.6-19.5-6.7-28.8q-1.9-5-4.3-9.8c-0.6-4.9-1-10.1-1.8-15.3-5.3-32-28.9-58.7-60.9-66.7-8.9-6.8-19.1-11.8-29.7-15.5-17.1-12.5-36.7-14.8-56.3-12.2-24.2-2.7-49.7-0.2-71 12.8-4.7 2.2-9.5 3.4-14.3 5-27.1 8-47.3 26.8-57.2 53.2-2.2 4.5-4.6 8.9-7.1 13.5q-5.2 9.5-9.1 19.7-1.9 5.1-3.5 10.3c-6.6 14-6.6 29.9-7.9 46.5-0.3 3.3-0.4 6.5-0.5 9.8q-0.2 3.8-0.1 7.5 0 1.1 0.1 2.3c-0.8 10.2 2.5 19.5 6.6 28.8q1.9 5 4.3 9.8c0.6 4.9 1 10.1 1.8 15.3 5.3 32 29 58.7 60.9 66.7 8.9 6.8 19.1 11.8 29.8 15.5 17 12.5 36.6 14.8 56.3 12.1 24.1 2.8 49.6 0.3 70.9-12.7 4.7-2.2 9.5-3.4 14.4-5 27-8 47.2-26.8 57.1-53.2 2.2-4.5 4.7-8.9 7.2-13.5q5.1-9.5 9-19.7 1.9-5.1 3.5-10.3c6.6-14 6.6-29.9 7.9-46.5 0.3-3.3 0.4-6.5 0.6-9.8q0.2-3.8 0-7.5 0-1.1 0-2.3z"/><path class="e" d="m334.1 144.3c-0.5-9.7-4.9-18-9.9-26.3q-2.4-4.5-5.3-8.7c-1.1-4.6-2.1-9.5-3.5-14.2-9-29.6-34.6-51.8-65.7-55.5-9.2-5.3-19.5-8.7-30-10.9-17.6-9.7-36.4-9.4-54.6-4.5-23.2 0.4-46.9 5.9-65.4 20.7-4.1 2.7-8.5 4.4-12.9 6.5-24.5 10.9-41.3 31.2-47.4 57.2-1.5 4.5-3.3 9.1-5 13.7q-3.7 9.6-6.1 19.7-1.2 5-2.1 10.2c-4.5 14-2.5 29-1.7 44.8 0.1 3.1 0.4 6.2 0.7 9.3q0.2 3.6 0.8 7.1 0.2 1.1 0.4 2.2c0.5 9.7 4.8 18 9.8 26.3q2.4 4.5 5.3 8.7c1.1 4.5 2.2 9.5 3.6 14.2 8.9 29.6 34.5 51.8 65.6 55.5 9.3 5.3 19.5 8.7 30 10.9 17.7 9.7 36.4 9.4 54.7 4.5 23.1-0.4 46.8-5.9 65.3-20.7 4.2-2.7 8.5-4.4 12.9-6.5 24.6-10.9 41.3-31.2 47.4-57.2 1.5-4.5 3.3-9.1 5.1-13.7q3.7-9.6 6.1-19.7 1.2-5 2-10.2c4.5-14 2.6-29 1.7-44.8-0.1-3.1-0.3-6.2-0.6-9.3q-0.3-3.6-0.9-7.1-0.2-1.1-0.3-2.2z"/><path class="f" d="m326 146.2c-0.5-9.2-4.6-17.1-9.4-24.9q-2.3-4.3-5-8.3c-1-4.3-2-8.9-3.4-13.4-8.4-28.1-32.7-49.2-62.2-52.6-8.7-5-18.4-8.3-28.4-10.4-16.7-9.2-34.4-8.9-51.7-4.2-21.9 0.4-44.4 5.6-62 19.6-3.9 2.5-8 4.2-12.2 6.2-23.2 10.3-39.1 29.5-44.9 54.2-1.4 4.3-3.1 8.5-4.8 12.9q-3.5 9.1-5.8 18.7-1.1 4.8-1.9 9.6c-4.2 13.3-2.4 27.5-1.6 42.5 0.1 3 0.4 5.9 0.6 8.8q0.3 3.4 0.9 6.7 0.1 1 0.3 2.1c0.4 9.2 4.6 17.1 9.3 24.9q2.3 4.3 5 8.3c1.1 4.3 2 8.9 3.4 13.4 8.4 28.1 32.7 49.2 62.2 52.6 8.7 5 18.5 8.3 28.4 10.4 16.7 9.2 34.5 8.9 51.8 4.2 21.9-0.4 44.4-5.6 61.9-19.6 3.9-2.5 8.1-4.2 12.2-6.2 23.3-10.3 39.2-29.5 44.9-54.2 1.5-4.3 3.1-8.5 4.8-12.9q3.5-9.1 5.8-18.7 1.1-4.8 1.9-9.6c4.3-13.3 2.4-27.5 1.6-42.5-0.1-3-0.3-5.9-0.6-8.8q-0.2-3.4-0.8-6.7-0.2-1.1-0.3-2.1z"/><path class="g" d="m306.7 115.3c-2.5-8.3-8.1-14.7-14.3-20.8q-3.1-3.4-6.5-6.5c-2-3.7-4-7.8-6.2-11.6-14.3-23.9-41.5-37.7-69.4-34.1-9.2-2.6-19-3.4-28.6-3-17.5-4.6-33.8-0.3-48.7 8-20.1 5.4-39.6 15.4-52.5 32.3-3 3.3-6.5 5.7-9.9 8.5-19 14.9-29.2 36.2-28.8 60.3-0.4 4.3-0.9 8.6-1.5 13q-1.1 9.2-1 18.5 0.1 4.7 0.4 9.4c-0.8 13.2 4.2 25.9 8.3 39.5 0.8 2.7 1.7 5.3 2.6 8q1.1 3 2.3 6 0.4 0.9 0.8 1.8c2.6 8.3 8.2 14.7 14.3 20.8q3.1 3.4 6.5 6.5c2 3.7 4 7.7 6.3 11.6 14.2 23.9 41.4 37.7 69.4 34.1 9.2 2.6 18.9 3.4 28.6 3 17.5 4.6 33.8 0.3 48.6-8 20.1-5.4 39.6-15.4 52.5-32.3 3.1-3.3 6.5-5.7 9.9-8.5 19-14.9 29.2-36.2 28.9-60.3 0.3-4.3 0.9-8.6 1.4-13q1.2-9.2 1-18.5 0-4.7-0.4-9.4c0.9-13.2-4.1-25.9-8.3-39.5-0.8-2.7-1.7-5.3-2.6-8q-1-3-2.3-6-0.4-0.9-0.8-1.8z"/></svg>